<svg width="28" height="23" viewBox="0 0 28 23" fill="none" xmlns="http://www.w3.org/2000/svg">
<path d="M6.825 13.6562L4.66667 15.4291C4.2 15.8124 4.2 16.3874 4.66667 16.7708L7.58333 19.1666C8.05 19.5499 8.75 19.5499 9.21667 19.1666L14 15.2374L18.7833 19.1666C19.25 19.5499 19.95 19.5499 20.4167 19.1666L23.3333 16.7708C23.8 16.3874 23.8 15.8124 23.3333 15.4291L18.55 11.4999L23.3333 7.57078C23.8 7.18744 23.8 6.61244 23.3333 6.22911L21.8167 4.98328" stroke="#CCCCCC" stroke-miterlimit="10" stroke-linecap="round" stroke-linejoin="round"/>
<path d="M19.3083 3.4021L14 7.76252L9.21667 3.83335C8.75 3.45002 8.05 3.45002 7.58333 3.83335L4.66667 6.22918C4.2 6.61252 4.2 7.18752 4.66667 7.57085L9.45 11.5" stroke="#CCCCCC" stroke-miterlimit="10" stroke-linecap="round" stroke-linejoin="round"/>
</svg>
